<svg xmlns="http://www.w3.org/2000/svg" viewBox="0 0 100 100"><path d="M56.6 96.7c-.8-.2-1.5-.5-2.2-1a7 7 0 0 1-2.2-2c-1.2-1.8-2-3.9-2.2-6.1l-.1-.7-.1.7c-.2 2.2-.9 4.3-2.2 6.1a8.3 8.3 0 0 1-4.4 3l-2.4.4.1-.8.2-.9.3-1.1c.5-1.9 1.2-3.8 2.3-5.5a10.6 10.6 0 0 1 6.3-4.5 11.6 11.6 0 0 1 6.3 4.5c1 1.7 1.8 3.5 2.3 5.5l.3 1.1.2.9.1.8-2.6-.4zm7.4-6.8c-.8-.1-1.6-.2-2.3-.5l-1.9-.8-1.5-1.1-.6-.6-.5-.6-.7-1.1-.8-1.8-.2-.7h1.1l2.8.1 1.8.1 2 .1 2.1.2 2.1.3c1.2.2 2.4.6 3.6 1a13 13 0 0 1 4.2 2.7l.5.6-1.3.6-1.5.6-.9.3-1 .3-2.2.5-2.4.2h-.7c-.5-.3-1.1-.3-1.7-.4zM34 90a19.4 19.4 0 0 1-4.6-.7l-1-.3-.9-.3-1.5-.6-1.3-.6.5-.6 1.6-1.3 2.6-1.4c1.2-.5 2.4-.8 3.6-1l2.1-.3 2.1-.2 2-.1 1.8-.1 2.8-.1h1.1l-1.1-.1c-.9-.1-1.8-.2-2.7-.5l-1.7-.6-1.7-.8-1.5-1.1-1.3-1.4a8.3 8.3 0 0 1-1.4-3c-.2-.9-.2-1.8-.1-2.7l.4-1.9.2-.3.7.4.8.5.5.3.5.3c1.7 1 3.2 2.3 4.6 3.7l1 1.3.9 1.3.4.6.3.6.5 1.2c.3.6.5 1.2.6 1.9l.2.7-.2.7c-.2.6-.4 1.2-.8 1.8l-.7 1.1-.5.6-.6.6-1.5 1.1-1.9.8-2.3.5H34zm-10.6-6.8-2.1-.4-2.1-.7-1.9-1-1.7-1.1-.4-.3-.4-.3a3 3 0 0 0-.7-.5L13 78l-.9-.9.6-.3 1.8-.6 1.2-.3 1.5-.1h1.6l1.8.2a40 40 0 0 1 5.4 1.6l.8.3.8.3 2.4 1 .7.3.3.1-.4.6-1.4 1.3c-.7.5-1.5 1-2.4 1.2l-1.6.4-1.2.1h-.6zM75 83l-1.6-.4a9 9 0 0 1-2.4-1.2l-1.4-1.3-.4-.6.3-.1.7-.3 2.4-1 .8-.3.8-.3 1.7-.6c1.2-.4 2.4-.8 3.7-1l1.8-.2c.5 0 1.1-.1 1.6 0l1.5.1 1.2.3 1.8.6.6.3-.9.9-1.1.9-.7.5-.4.3-.4.3-1.7 1.1-1.9 1-2.1.7-2.1.4h-.7L75 83zm-19.3-1.1.6-1.9.5-1.2.3-.6.4-.6.9-1.3 1-1.3c1.4-1.4 2.9-2.7 4.6-3.7l.5-.3.5-.3.8-.5.7-.4.2.7.4 1.9c.1.9 0 1.8-.1 2.7a6.9 6.9 0 0 1-1.4 3l-1.3 1.4-1.5 1.1-1.7.8-1.7.6-2.7.5-1.1.1.1-.7zm-24.8-2.3-.7-.4a8 8 0 0 1-2.1-1.5l-.6-.5-.6-.6-1.2-1.3c-.7-.9-1.3-2-1.6-3.2-.2-.5-.3-1.1-.3-1.6V69c.1-.4.1-.9.3-1.3l.4-1.1a5 5 0 0 1 .9-1.6l.4-.6.5.6.6.7.3.4.2.2.2.2c1.2 1.5 2.2 3.2 3 5l.5 1.5.3 1.4.2 2.6-.2 1.8-.2.7c0 .2-.1.2-.3.1zm38.1-.7-.2-1.8c0-.9 0-1.7.2-2.6l.3-1.4.5-1.5c.8-1.8 1.7-3.5 2.9-5l.2-.2.2-.2.3-.4.6-.7.5-.6.4.6.9 1.6.4 1.1.3 1.3v1.5a9.2 9.2 0 0 1-1.9 4.7c-.3.5-.7.9-1.2 1.3l-.6.6-.6.5-2.1 1.5-.7.4-.2.1-.2-.8zm-54-6c-1.1 0-2.2-.3-3.2-.8a16.5 16.5 0 0 1-5.8-5l-.9-1.3-.7-1.1-.5-1 .7-.1 1.7-.1 1.2.1 1.3.3 1.4.5 1.5.7.8.5.8.5 1.4 1.1.7.5.3.3.3.3 1.2 1c.8.6 1.3 1.3 1.8 1.7l.7.6-.6-.7-1.4-2-.7-1.4-.2-.4-.2-.4-.3-.8-.4-1.6-.1-.8v-.8l.2-1.5.5-1.3.6-1.1.7-.9 1.2-1.2.5-.4.3.7.3.8.4 1c.7 1.8 1.1 3.6 1.2 5.5 0 1 0 1.9-.2 2.8l-.7 2.3a11 11 0 0 1-1.2 2.1 2 2 0 0 0-.6.4l-1.6.7c-.7.2-1.4.3-2.2.3H15zm67.7-.5a27.7 27.7 0 0 1-2.2-1l-.4-.6-.8-1.5-.7-2.3c-.2-.9-.3-1.9-.2-2.8a17.5 17.5 0 0 1 1.6-6.5l.3-.8.3-.7.5.4c.4.3.9.7 1.2 1.2l.7.9a11 11 0 0 1 1.1 2.4l.2 1.5v.8l-.1.8-.4 1.6-.3.8-.2.4-.2.4-.7 1.4-1.4 2-.6.7.7-.7 1.8-1.6 1.2-1 .3-.3.3-.3.7-.5 1.4-1 .8-.5.8-.5 1.5-.7 1.4-.5 1.3-.3 1.2-.1 1.8.1.7.1-.5 1-.7 1.1-.9 1.3a16.5 16.5 0 0 1-5.8 5c-1 .5-2.1.7-3.2.7h-.3l-2.2-.4zM9.4 60.3a7.8 7.8 0 0 1-4.9-2.1c-1.7-1.7-3-3.8-3.7-6.1l-.4-1.4-.3-1.2-.1-1 .6.1 1.6.5 2.1 1.1c.4.3.8.5 1.1.9l1.1 1.1c1.4 1.6 2.6 3.4 3.6 5.2l.3.6.3.5.5.9.4.7-.1-.2-.3-.6-.3-.9-.2-.6-.1-.6c-.5-2-.4-4.1.2-6l.6-1.3.8-1 1.7-1.4 1.4-.7.6-.2.1.7.1.8v1a18 18 0 0 1-.5 5.2 10.6 10.6 0 0 1-3.4 5.4l-.5.4-.6.1-1.2.1h-.5zm79.7-.3-.6-.1.4-.8.5-.9.3-.5.3-.6c1-1.8 2.2-3.6 3.6-5.2l1.1-1.1 1.1-.8 2.1-1.1 1.6-.5.6-.1-.2 1.1-.3 1.2-.4 1.4c-.7 2.3-2 4.3-3.7 6a7.7 7.7 0 0 1-4.8 2h-1.6zm-1.1-.5-1.1-1.1a10.2 10.2 0 0 1-2.3-4.2 18 18 0 0 1-.5-5.2v-1l.1-.8.1-.7.6.2 1.4.7a7.5 7.5 0 0 1 2.5 2.4c.2.4.5.8.6 1.3.6 1.9.7 4 .2 5.9l-.1.6-.2.6-.3.9-.2.6-.1.2c-.4-.1-.6-.3-.7-.4zM7.2 46.4 5.8 46c-.7-.3-1.3-.6-1.8-1.1a9.6 9.6 0 0 1-1.8-2.2c-.9-2-1.4-4.1-1.3-6.3v-1.3L1 34l.1-1a8.7 8.7 0 0 1 3.3 2.6c.6.7 1 1.5 1.4 2.3.7 1.8 1.2 3.7 1.5 5.6l.2 1.2.1.9.1.8h-.5zm.5-.8v-.9l.1-1.2c.2-1.9.9-3.7 2-5.2.5-.7 1.2-1.2 1.9-1.6.6-.3 1.2-.6 1.9-.7.7-.2 1.3-.2 2-.2l-.2.7-.2.8-.3.9c-.5 1.6-1.2 3.1-2.1 4.5-.5.7-1 1.3-1.6 1.8-.5.5-1.1.8-1.7 1.2l-1.3.6-.5.2v-.9zm83.9.6-1.3-.6c-.6-.3-1.2-.7-1.7-1.2a6.9 6.9 0 0 1-1.6-1.8c-.9-1.4-1.6-2.8-2.1-4.4l-.3-.9-.3-1.4c.7 0 1.3 0 2 .2.7.1 1.3.4 1.9.7.7.4 1.4 1 1.9 1.6 1.1 1.5 1.8 3.3 2 5.1l.1 1.1v1.7l.2-1.7.2-1.1c.3-1.9.8-3.8 1.5-5.5.4-.8.8-1.6 1.4-2.3l1.5-1.5c.5-.4 1.1-.8 1.8-1.1l.2.9.1 1v1.3a12 12 0 0 1-1.4 6.2c-.4.8-1 1.6-1.8 2.2-.6.5-1.2.8-1.8 1.1l-1.4.4-.6.1-.5-.1zm-2.5-13.9-1.8-.6c-.7-.3-1.4-.7-2-1.2a14.3 14.3 0 0 1-3.8-4.9l-.3-.6.5-.1 1.3-.1 1.8.2c.8.2 1.5.5 2.1 1a11 11 0 0 1 3.1 4l.4 1 .3.8.2.7-.2-.7-.1-.8-.2-1c-.3-1.7-.3-3.5-.1-5.2.1-.8.4-1.6.7-2.3l1-1.7.9-1 .4-.3.3.8.7 2c.5 1.8.6 3.7.3 5.6-.2.8-.5 1.6-.9 2.3l-1.3 1.5-1.6 1h-.3l-1.4-.4zm-80.3 0a6.4 6.4 0 0 1-2.9-2.5 5 5 0 0 1-.9-2.3c-.3-1.9-.2-3.8.3-5.7l.7-2 .3-.8.4.3.9 1 1 1.7c.3.8.6 1.6.7 2.4.2 1.8.2 3.5-.1 5.3L9 30.8l-.1.8-.1.7.2-.7.3-.8.4-1c.7-1.6 1.7-3 3.1-4.1.6-.5 1.3-.8 2.1-1 .6-.2 1.2-.2 1.9-.2l1.3.1.5.1-.3.6-.8 1.4c-.8 1.4-1.8 2.6-3 3.6-.6.5-1.3.9-2 1.2l-1.8.6-1.5.2h-.4zm71.8-13.1c-1.3-.6-2.4-1.4-3.4-2.3l-.6-.6-.5-.4-.4-.4 1.5-.7c.5-.2 1.1-.3 1.7-.3l2.1.3c1.4.6 2.7 1.5 3.6 2.7l1 1.4.4.6c-.5.2-1.1.3-1.6.3h-.6a8 8 0 0 1-3.2-.6zm5-.3-.7-1.5c-.7-1.4-1.1-3-1.3-4.5v-2.2L84 9l.8-1.5.5.6.5.7.6.9c.9 1.5 1.5 3.1 1.6 4.9.1 1.3-.3 2.7-1 3.8-.3.5-.7.9-1.1 1.2l-.3-.7zm-70.2.5c-.6 0-1.1-.1-1.6-.3l-1.1-1.2a5.8 5.8 0 0 1-1-3.8c.2-1.7.8-3.4 1.7-4.9l.6-.9.5-.7.5-.6.8 1.5c.2.6.4 1.1.4 1.7v2.2c-.2 1.6-.7 3.1-1.4 4.6l-.7 1.6-.3.5.3-.5 1-1.4c1-1.2 2.2-2.2 3.7-2.8a5.2 5.2 0 0 1 3.8-.1l1.5.7-.4.4-.5.5-.6.6c-1 1-2.2 1.8-3.5 2.4-1 .4-2.1.7-3.2.7-.1-.2-.3-.2-.5-.2zm66-6.3-.7-.3-.9-.4c-1.6-.8-3-1.7-4.4-2.8a24.4 24.4 0 0 1-3.5-3.7l-.6-.8-.5-.6-.4-.6H72l1 .1.6.1.6.2.7.2.7.3.7.3.7.4.7.4.6.5a10.7 10.7 0 0 1 3.5 5.7l.2.8.1.7-.7-.5zM18 12.3l.2-.8.3-1a11 11 0 0 1 3.2-4.8l.7-.5.6-.5.7-.4.7-.3.7-.3.7-.2 1.2-.3 1-.2h1.5l-.4.6-.5.6-.6.8a21.4 21.4 0 0 1-7.9 6.9l-.9.5-.7.3-.6.3.1-.7z"></path></svg>