<svg xmlns="http://www.w3.org/2000/svg" width="266.045" height="38.672"><path d="M68.166 20.63c.692.065 1.071.354.842.643l.527.212.143.058a.33.33 0 0 0 .389-.2l-.053-.1-.059-.115a1.242 1.242 0 0 1 .314-.314l.109-.08.495-.273.206-.274c.143.17.3.231.348.135a1.361 1.361 0 0 1 .465-.358c.2-.1.82.047.872-.018s.432-.051.48-.182l.179-.058.038-.013c.038-.02.566-.223 1.175-.451l.635.1.064.01a.437.437 0 0 0 .289-.147 1.21 1.21 0 0 1 .661-.235 5.889 5.889 0 0 0 1.057-.32l.273-.037.086-.011a.509.509 0 0 0 .465-.082 4.415 4.415 0 0 1 .8-.469c.16-.036.89-.257 1.279-.371l.4-.028.307-.021a6.2 6.2 0 0 0 .92-.613c.183-.16.97.132 1.179.088l.138-.1c.143-.105.189-.294.322-.413l.03-.028a1.664 1.664 0 0 0 .95-.076c.345-.119 1.25-.479 1.373-.378s.759-.2 1.023-.3l.152-.149.39-.378c.4.2.762.3.8.231l.015-.067.043-.192a1.543 1.543 0 0 0 .616-.185 8.773 8.773 0 0 0 .838-.483c.188-.163.812.166.863.13s.461-.229.785-.372 1.2-.538 1.22-.56a4.9 4.9 0 0 1 .74-.09c.379-.032 1.355-.376 1.445-.345a2.581 2.581 0 0 0 .877-.275 8.573 8.573 0 0 1 1.567-.271c.043-.011.177-.108.066-.147s-.132-.281.152-.466 1.215.124 1.263.086.363-.159.572-.252.932-.17 1.03-.266l.1-.083c.082-.066.189-.164.278-.159l.264.015a1.107 1.107 0 0 0 .882-.262l.209-.073.291-.1a10.937 10.937 0 0 1 1.227.147 5.037 5.037 0 0 0 1.617-.665 5.833 5.833 0 0 1 2.091.078l.3-.226a1.324 1.324 0 0 1 .551-.234l.3-.052a1.334 1.334 0 0 0 1.011-.032l.27-.089c.091-.031.27.162.4.154l.422-.023c.455-.1.972-.2 1.15-.227s.727.174.958.1a7.448 7.448 0 0 1 1.3.125l.21-.022.1-.011a2.676 2.676 0 0 1 .773-.064c.327.01 1.564.4 2.16.466s2.793.126 3.535.116l.475.487a.43.43 0 0 0 .667.026l.027-.023c.189.1.415.2.5.238a1.526 1.526 0 0 0 .5-.021c.158-.025.5.247.664.366s.811.617 1.126.8a7.707 7.707 0 0 1 1.438 1.746l.457.38.03.025c-.067.11.029.452.214.759s.6 1.2.627 1.256.137.505.229.833l.109.294c.074.2.581.2.363.547l-.223.354a1.977 1.977 0 0 1 .818.383c.078.11.418.63.564.908l.226.082.4.143c.493.071 1.144.144 1.446.162s1.325-.011 1.592.04l.248.039.209.033a2.816 2.816 0 0 0 .871-.123 11.221 11.221 0 0 0 1.654-.194l.272.271c.179.179.186-.116.187-.21 0-.341.1-.5.539-.268l.066.036c.117-.014.255-.184.306-.377l.31.214.081.055a.981.981 0 0 1 .647-.093c.071.061.35.23.421.208l.062-.02c.582-.186 1.166-.368 1.744-.56l.347-.116c.366-.15.847-.364 1.069-.476l.315.133.218.092a1.191 1.191 0 0 1 .577-.394l.095.013.138.019a8.066 8.066 0 0 0 1.188-.249.668.668 0 0 1 .529.2c.175.173.7-.352.886-.354s.662-.3.792-.291a.959.959 0 0 0 .631-.268c.081-.151.554.088.6.029a1.5 1.5 0 0 1 .81-.3l.347-.011.169-.005a3.365 3.365 0 0 0 .912-.513l.454.081.34.061a6.476 6.476 0 0 0 .982-.205 8.357 8.357 0 0 1 .89-.368l.233.054c.534.122.922-.04 1.724-.53l.057-.035a5.486 5.486 0 0 0 1.087-.062l.276-.176.081-.052c.154.009.252.086.22.171l-.015.079-.038.194c.064.24.249.218.41-.048l.225-.173.232-.178c.347-.125.551-.12.455.01s.2.412.775.27a14.021 14.021 0 0 0 1.781-.337 2.124 2.124 0 0 0-1.079.057l-.18.072-.127.05c-.181-.013-.326-.086-.323-.163a1.29 1.29 0 0 1 .522-.45 6.879 6.879 0 0 1 1.183-.143c.059-.031.249-.181.32-.09a2.021 2.021 0 0 0 1.275-.078l.359-.2a.587.587 0 0 1 .677-.015 1.03 1.03 0 0 0 1.192-.147l.123-.115a4.388 4.388 0 0 1 .827-.064 3.957 3.957 0 0 1 1.3.049l.322-.218.274-.185.714-.12c.029-.005.388.006.769 0a9.977 9.977 0 0 0 1.553-.123 1.232 1.232 0 0 1 .918.106c.3.2 1.479-.2 1.675-.223l.172.032c.192.035.423.211.539.164.151-.06.176-.3.31-.424l.1-.1a.955.955 0 0 1 .537.023.77.77 0 0 0 .522-.045.849.849 0 0 1 .516-.13l.1.006a2.069 2.069 0 0 0 .891 0c.342-.173.6-.285.943-.052l.046.032a.822.822 0 0 0 .407-.221c.147-.127 1 .048 1.24.056s.872-.132.9-.312.706.028.911.149 1.214.1 1.358.177.52-.186.649-.145a1.069 1.069 0 0 0 .718-.1 1.577 1.577 0 0 1 1.1-.237l.185.122.6.4c-.212-.374-.143-.567.154-.428s1.214.247 1.3.31.4.2.46.118.416-.57.63-.883l.523.351c.3.2.868-.06 1.214.27l.057.054a2.739 2.739 0 0 0 .711-.254 3.379 3.379 0 0 1 1.254-.052l.338.03.2.018c.234-.056.632-.133.885-.171s1.48.1 1.68.073a2.213 2.213 0 0 1 .813-.005.736.736 0 0 0 .522.276c.217-.016.382-.511.437-.516s.632.109 1.182.22l.483-.112.13-.03a2.442 2.442 0 0 1 .888.063 10.5 10.5 0 0 1 1.879.245l.35-.281c.237-.189.361-.32.425.1.031.2.316.161.523.023l.186-.124a3.892 3.892 0 0 0 .94-.154l.24-.044.064-.012a3.142 3.142 0 0 0 .374.333 3.2 3.2 0 0 0 1.011.077l.053-.041.334-.255a1.141 1.141 0 0 0 .753.228l.151-.055.226-.083a13.9 13.9 0 0 0 1.624-.217 6.188 6.188 0 0 1 1.658.181l.271-.171.257-.161a4.345 4.345 0 0 0 1.221.1 11.43 11.43 0 0 0 1.636-.019l.132-.061.037-.017c.046-.04.109-.013.14.06a.353.353 0 0 0 .508-.02c.2-.2 1.287.037 1.6-.013a3.322 3.322 0 0 1 1.075.323c.016-.012.291-.116.569-.214a14.109 14.109 0 0 1 2.262 0l.207-.06.066-.019c.039-.209.149-.3.245-.195a1.526 1.526 0 0 0 .638.254 5.218 5.218 0 0 0 1.054-.3 4.5 4.5 0 0 1 1.54.077c.163.046.89-.033 1.178.041l.263-.015.118-.006a.357.357 0 0 1 .509-.179.965.965 0 0 0 .753.008c.129-.088.787-.018 1.1-.218l.267.389c.048-.015.351-.072.673-.126s1.072-.152 1.246-.195a1.934 1.934 0 0 1 .965.15c.181.129.866-.183 1.114-.11a6.7 6.7 0 0 0 1.27-.115 5.274 5.274 0 0 1 .927.222l.211-.134a.684.684 0 0 1 .45-.044l.292.073a3.049 3.049 0 0 0 1.148.121l.287-.062.425-.092a8.4 8.4 0 0 0 1.743-.057l.348.352.7-.275.053-.041a4.3 4.3 0 0 1 1.107 0c.552.041 2.015.383 2.117.4a4.529 4.529 0 0 0 1.019-.278 3.3 3.3 0 0 1 1.3.2c.046.007.514.057.935.1s1.543.515 1.558.454a3.454 3.454 0 0 1 .092-.388c.039-.1.542.034.809 0s.988.025.921.271 1.079.343 1.048.245 0-.386.136-.426a2.063 2.063 0 0 1 .776.142c.224.079 1.07-.029 1.25.015s.816.188.99.234a1.742 1.742 0 0 0 .852-.172c.159-.1.684.2.807.2s.583-.065.746-.042.7.213.906.257l.21-.108.073-.037c.207.137.146.4-.135.572l.616.025c.3.011.553 0 .484-.334l-.044-.217a2.227 2.227 0 0 1 1 .042l.11.223c.11.223-.109.3-.382.3h-.029a.336.336 0 0 0 .306.393l.082-.066c.2-.161.3-.424.521-.549l.213-.119c.348-.029.639.054.648.186a1.366 1.366 0 0 0 .552.751c.286.145 1.125-.171 1.149-.173s.375.071.725.156 1.241-.032 1.128.035a1.265 1.265 0 0 0-.3.718v.474a.7.7 0 0 0 .352.638c.193.073.682.449.669.681s-.744.469-.744.313-.089-.649-.2-.546a1.235 1.235 0 0 0-.307.658c.008.193.592.575.843.5s.956-.166.857.006a.975.975 0 0 0 .023.66c.052.127.205.6.285.743l.1.015c.331.046.349.209.226.375l-.121.164a2.768 2.768 0 0 1-.67-.353c-.022-.046-.17-.194-.2-.039s-.235.54-.361.355a1.7 1.7 0 0 1-.216-.564c-.02-.106-.266-.322-.367-.207s-.281.431-.439.5a4.45 4.45 0 0 1-1.188.525l-.439-.07-.434-.07a3.016 3.016 0 0 1-1.036-.069c-.067-.06-.387-.2-.519-.13a6.15 6.15 0 0 0-.679.406c-.091.085-.595-.043-.782.06s-.961-.091-1.159.028-.941-.275-1.189-.317a10.492 10.492 0 0 1-1.423.086l-.337-.011-.241-.007a6.118 6.118 0 0 1-.632-.005c-.075-.01-.928.039-1.753.065s-3.213.122-3.484.066-1.445.07-1.922.066l-.4-.114-.258-.074c-.174.077-.487.2-.7.268l-.106-.055-.743-.381a11.492 11.492 0 0 1-2.13.1c-.3-.049-1.4.051-1.72.055s-1.441.017-1.776.008-1.161-.149-1.274.184l-.483-.18-.356-.134a4.109 4.109 0 0 1-1.277 0l-.265.066-.321.08a1.284 1.284 0 0 0-.811.05c-.157.1-.855-.327-1.23-.463s-1.557.39-1.918.386a6.7 6.7 0 0 1-1.565-.131c-.164-.11-.928.111-1.143.14s-.9.047-1.057.1a4.763 4.763 0 0 1-1.022-.014 7.852 7.852 0 0 0-1.136-.01 2.106 2.106 0 0 1-.723-.215c-.037-.007-.723.143-1.462.307a11.954 11.954 0 0 1-2.357.032c-.19.006-1.053.052-1.517.111s-2.232-.272-2.946-.315a19.137 19.137 0 0 0-2.682.391c-.084-.009-.808-.156-1.425-.278l-.508.266c-.238.125-.368-.31-.6 0l-.146.2a8.885 8.885 0 0 0-2.628-.365l-1.1.084-.282.021c-.27-.024-.824-.086-1.23-.138l-.118.126c-.266.285-.4-.151-.611 0-.307.22-.591-.082-.889-.112l-.319-.031a2.335 2.335 0 0 0-.885.349c-.172.138-.88-.146-1.113-.066s-1-.269-1.23-.334-.807.26-.847.269-.69-.074-1.4-.154l-.656.11-.326.055a3.72 3.72 0 0 0-1.045.132c-.225.078-1-.26-1.4-.231a16.818 16.818 0 0 1-2.338.012l-.4.307-.084.064a7.285 7.285 0 0 0-1.788-.239c-.673-.017-2.544.292-2.721.213s-.834.157-1.008.215-.638-.141-.671-.125-.372.135-.672.242l-.283.027-.209.02a3.782 3.782 0 0 0-.9-.13l-.174.081-.341.159a3.462 3.462 0 0 0-.935-.15 2.367 2.367 0 0 0-.929.258c-.15.142-.813-.149-.989-.173a9.806 9.806 0 0 0-1 .29c-.253.036-1.165 0-1.418.025s-1.41.171-2.007.228-2.462.134-2.81.122-1.33.276-1.572.284-1.128.161-1.427.185-1.329.189-1.615.178a12.991 12.991 0 0 0-1.618.411c-.351.08-1.653.092-2.051.107a14.208 14.208 0 0 0-1.652.363c-.14.026-.7.038-.921.039s-.846.25-1.046.269a12.361 12.361 0 0 0-1.581.331c-.474.146-2.208.435-2.714.5a13.59 13.59 0 0 1-1.971.437c-.168-.111-.632.227-.757.218a4.531 4.531 0 0 0-.776.206c-.175.053-.709.287-.87.325s-.861.246-1.255.349-1.735.508-2.13.613a28.855 28.855 0 0 0-2.79.906l-.741.112-.313.048a5.326 5.326 0 0 0-.956.29 8.531 8.531 0 0 1-.926.218 4.161 4.161 0 0 1-1.122.129c-.273-.044-1.7.547-2.719.822l-.985.045a5.712 5.712 0 0 0-.842.036c-.319.065-.61.249-.929.285l-.216.023a.9.9 0 0 0-.778-.006c-.168.116-.917-.115-1.1-.175s-.77-.235-.888-.264-.455.025-.581-.048-.658.1-.8.155a5.976 5.976 0 0 1-1.68-.273l-.6-.2-.067-.022c-.018-.155-.126-.211-.24-.123a1.964 1.964 0 0 1-1.262.05 4.964 4.964 0 0 1-1.666-1.644l-.627-.132-.309-.064a9 9 0 0 0-.627-1.169 8.609 8.609 0 0 0-.9-1.053c-.26-.214-.313-1.044-.358-1.077a2.513 2.513 0 0 0-.37-.186 4.881 4.881 0 0 1-.749-.9l-.581-.193a10.867 10.867 0 0 1-1.354-.8c-.135-.067-.417.07-.634.1-.348.043-.705.049-1.046.113l-.364.069a41.91 41.91 0 0 1-1 .318 2.17 2.17 0 0 1-.855-.089c-.157-.065-.562.277-.842.239l-.257-.013a3.794 3.794 0 0 0-1-.006l-.567.129a11.987 11.987 0 0 1-1.56.281c-.232.007-.516.537-.7.587a9 9 0 0 1-1.087.2 6.6 6.6 0 0 0-1.346.335 8 8 0 0 1-1.442.18c-.052.017-.241.165-.406.272s-.9.319-1.089.434-1.089.214-1.412.308-1.3.456-1.512.461a2.6 2.6 0 0 1-1.229-.015l.112.586c.005.031-.122.108-.194.114l-.4.031a4.362 4.362 0 0 1-1.075.516c-.271.07-1.25.291-1.554.375s-1.224.329-1.366.363-.508.271-.743.105-.72.525-.837.6l-.1-.014c-.523-.077-.88.235-1.321.337l-.23.053a1.159 1.159 0 0 1-.5.189c-.088-.009-.318.075-.317.208s-.479-.04-.573 0a3.6 3.6 0 0 1-1.036-.015l-.1.469-.05.23c-.463.044-1.144.12-1.514.17s-1.269.5-1.366.475a11.55 11.55 0 0 0-1.9.047l-.256.783-.1.324a.838.838 0 0 0-.8-.218 6.922 6.922 0 0 0-1.426.634l-.259-.369a.687.687 0 0 0-.342.088l-.467.325a7.1 7.1 0 0 0-1.354.419c-.209.113-1.051.033-1.4.276l-.462-.009c-.272-.006.084.462-.385.349l-.179-.042a1.147 1.147 0 0 0-.587.156c-.116.086-.519-.111-.69-.035a2.524 2.524 0 0 0-.858.717l-.455-.158-.139-.048a2.285 2.285 0 0 1-.925.383l-.188-.018-.25-.024c-.263.023-1.163.205-2 .4l-.69.33c-.126.06-.176.232-.392.064l-.247-.192a2.181 2.181 0 0 1-.61.522h-.193l-.4.009a6.289 6.289 0 0 0-.732.369 7.134 7.134 0 0 1-1.005.221l-.435.218-.393.2a2.021 2.021 0 0 1-1.085.163c-.067-.081-.493.012-.641-.077s-.343.365-.5.392l-.153-.005h-.1a.943.943 0 0 0-.645.192l-.256.121a2.242 2.242 0 0 1-.856.2l-.157.012a5.769 5.769 0 0 0-.778.551c-.265.219-1.357-.107-1.556-.09s-.738.305-.97.351a6.532 6.532 0 0 1-1.2.19c-.208-.034-.556.458-.8.488a3.322 3.322 0 0 1-1.067-.2c-.14-.071-.541.369-.753.458a.583.583 0 0 1-.565-.071c-.1-.094-.662.113-.858.209s-.783.234-.865.1-.69.131-.85.209l-.025-.022c-.384-.338-.565-.017-.8.144l-.038.027a.758.758 0 0 0-.388.137c-.135.086-.535-.162-.571-.23a.339.339 0 0 0-.47.024c-.17.181-.857.013-.824-.043s-.093-.158-.351-.106a5.346 5.346 0 0 1-1.237-.187c-.172-.034-.827.007-1.025.005s-1.45 0-2.345-.033a10.813 10.813 0 0 1-3.115-.683c-.1-.168-1.124-.3-1.524-.441l-.189-.241-.235-.3a5.623 5.623 0 0 1-.731-.469 3.247 3.247 0 0 0-.6-.3 7.084 7.084 0 0 1-.895-.77c-.165-.127-.166-.754-.307-.928a1.8 1.8 0 0 1-.3-.916c.056-.134-.423-.269-.43-.33l.022-.045c.166-.334-.049-.55-.373-.68l-.175-.071a1.451 1.451 0 0 1 .422-.352l.035-.216.024-.147c.173-.268.142-.4-.069-.284a2.688 2.688 0 0 1-.738.286 2.93 2.93 0 0 1 .244-.689c.077-.191-.339-.687-.412-.77s-.122-.4-.4-.506l.011-.058.078-.381a6.718 6.718 0 0 1-.544-1.3c-.1-.367-.791-1.407-.858-1.624l-.086-.192-.133-.3a9.106 9.106 0 0 1-.764-1.945v-.065a2.11 2.11 0 0 0 .019-.813l-.33-.886a7.346 7.346 0 0 0 .157-2.035l.038-.125.049-.163a4.747 4.747 0 0 0 .305-1.142l.862-.8.03-.028a.623.623 0 0 1 .078-.349c.064-.126-.109-.463.038-.543s.482-.809.8-1.235l.183-.4c.125-.27.18-.552.474-.718l.451-.256c-.044-.424.044-.791.2-.815s.55-.146.424-.2-.373-.2-.271-.233.34-.129.326-.159a1.46 1.46 0 0 0-.341-.245 3.251 3.251 0 0 0-1.2.187c-.3.1-1.384.481-1.794.567s-1.364.622-1.463.575l-.1-.046-.957.27c-.217.1-.429.218-.655.307l-.151.06a.733.733 0 0 0-.439.4l-.268.029-.16.017c-.167.069-.662.226-1.1.349s-1.689.781-1.986.872l-.274.082-.235.07a13.5 13.5 0 0 0-1.245.558 43.65 43.65 0 0 1-2.4 1.054 12.406 12.406 0 0 0-1.859.84 4.222 4.222 0 0 1-1.017.455c-.212.075-.986.322-1.249.39a4.054 4.054 0 0 0-.958.352 2.47 2.47 0 0 1-1.007.659c-.576.235-2.705 1.1-3.461 1.4l-.56.483a7.108 7.108 0 0 1-1 .869l-.383.227c-.409.262-1.03.71-1.38 1a19.106 19.106 0 0 1-1.891.9 1.7 1.7 0 0 1-.957.25l-.2-.035-.417-.073a2.782 2.782 0 0 0-1.222.072c-.208.1-.763-.185-.8-.154a2.611 2.611 0 0 1-.712.073l.085-.317a2.9 2.9 0 0 1 .148-.28c.115-.292.346-.564-.311-.707-.277-.059-.719-.328-.654-.741.039-.241-.141-.254-.379-.321l-.19-.054a6.252 6.252 0 0 0-1.1-1.208l.307-.585.007-.013c-.053-.035-.431-.3-.839-.6l-.044-.513-.035-.413a4.448 4.448 0 0 1-.665-1.266 2.93 2.93 0 0 1 .216-1.235l-.252-.171c-.04-.027-.03-.172.017-.2l.146-.1c.186-.08.245-.254.131-.387l.2-.154a.594.594 0 0 0 .19-.37c.022-.125-.1-.283-.038-.382a2.551 2.551 0 0 1 .425-.408l.3-.3c.332-.317.513-.706.4-.864s.583-.332.719-.459.709-.28.693-.351.248-.358.417-.51.752-.471.828-.527a2.1 2.1 0 0 0 .255-.427 5.025 5.025 0 0 1 .633-.5 8.84 8.84 0 0 1 1.454-.537c.16-.065.507-.5.683-.609s.569-.452.6-.375.186.184.216-.055.892-.723 1.259-1.016l.524.219c.04.017.164-.055.215-.107a8.54 8.54 0 0 0 .449-.508c.175-.213.285-.083.49 0 .263.1.585.065.21-.27a1.307 1.307 0 0 1 .378-.32c.08-.039.323.1.363.065l.6-.541a6.33 6.33 0 0 0 1.75-.665l.1-.086.046-.039a3.914 3.914 0 0 1 .65.207l.087-.218.047-.118c-.154-.22-.136-.391.039-.38a6.07 6.07 0 0 0 .945-.1 2.876 2.876 0 0 0 .981-.809l.3-.153.157-.08a8.918 8.918 0 0 0 1.736-.209l.155-.529a1.074 1.074 0 0 1 .272 0c.154.011.357.085.451.031l.169-.1c-.031-.2.154-.319.412-.273l.207-.045a2.2 2.2 0 0 0 .654-.3l.211-.127a.871.871 0 0 1 .525-.28 1.184 1.184 0 0 0 .614-.287l.191-.044.179-.042a2.293 2.293 0 0 0 .714.1l.1-.062.177-.11c.167-.151.348-.326.4-.388a.453.453 0 0 1 .477 0l.117.04.4.138a4.54 4.54 0 0 1 1.443-.5l.331-.177.2-.107a.713.713 0 0 1 .686-.146c.141.094.524-.3.725-.32a3.172 3.172 0 0 0 .988-.193c.158-.122.678.213.8.224a6.543 6.543 0 0 0 1.07-.352l.406.007c.267 0 .6-.005.855.023s.259.007.284-.152l.01-.064c.052-.066.223-.052.38.03s.667-.172.8-.177S36.206 0 37.073-.022s3.193.423 3.322.382a1.442 1.442 0 0 1 .727.168l.252-.132a1.719 1.719 0 0 1 .565-.039c.359-.028.739.191 1.1-.085L43.08.24c.356.233.67.319.7.191s.747-.152 1.02-.1a5.557 5.557 0 0 1 1.247.709 3.571 3.571 0 0 0 1.061.31 3.979 3.979 0 0 1 .737.406c.334.209.95 1.011.872 1.116s.33.461.421.568.415.485.524.592a2.432 2.432 0 0 1 .332.835c.038.229.2.913.256.8s.2-.136.241.1a6.793 6.793 0 0 1 .244 1.269 5.551 5.551 0 0 0 .478 1.534c.171.41.676 1.541.866 1.574s.884.847 1.114.908-.016.582.124.671.413.372.351.466a.784.784 0 0 0 .043.5 6.389 6.389 0 0 0 .556 1.432H53.695a1.3 1.3 0 0 0-.111.409 6.767 6.767 0 0 0 .094 1.166l-.342.3a1.212 1.212 0 0 0-.289.876v.243a2.245 2.245 0 0 0-.688.593l-.1.243-.1.225a2.986 2.986 0 0 1-.389.68 3.217 3.217 0 0 0-.426.745 2.372 2.372 0 0 0-.2.777c.034.23-.767.5-.847.668s-.519.851-.672 1.14-.854 1.42-1.118 1.9l-.269.421c-.272.424-.6.823-.874 1.248l-.07.11c.033.182.427.263.875.18a16.752 16.752 0 0 1 1.843.006l.074-.173.12-.284c.209.13.458.185.554.122a5.1 5.1 0 0 1 1.04-.241c.352-.047 1.121-.374 1.184-.163s.808-.13 1.185-.221 1.329-.655 1.534-.7.8-.319.982-.321a2.924 2.924 0 0 0 .8-.237c.115-.065.529.077.6.059s.331-.157.455-.215a2.841 2.841 0 0 1 .807-.075 12.949 12.949 0 0 0 1.862-.832l.8-.075.509-.048a12.283 12.283 0 0 0 1.3-.293l.14-.074.346-.183a2.148 2.148 0 0 0 .882-.208.846.846 0 0 1 .393-.27c.111 0 .5-.039.617-.052a2.554 2.554 0 0 0 .837-.635l.41.375a.438.438 0 0 0 .27-.107Z" fill="#fdd746"/></svg>